<svg xmlns="http://www.w3.org/2000/svg" viewBox="2131 58 19.582 16"><defs><style>.cls-2,.cls-3{fill:transparent;stroke:#fff}.cls-3{fill:none}</style></defs><g id="Symbol_1_1" data-name="Symbol 1 – 1" transform="translate(1881 43)"><path id="Union_1" data-name="Union 1" d="M-1832.126-32.246a4.5 4.5 0 0 1 .142-1.124l-4.262-9.63 3.432 2.492 3.61 3.8a6.981 6.981 0 0 1 3.257-.787 6.914 6.914 0 0 1 3.621.995c4.791-4.627 5.579-3.749 5.579-3.749l-3.176 6.826a4.492 4.492 0 0 1 .155 1.173c0 2.9-2.767 5.246-6.18 5.246s-6.178-2.345-6.178-5.242z" transform="translate(2086.246 58)" fill="#fff"/><path id="Line_1" data-name="Line 1" class="cls-2" transform="translate(263.5 25.5)" d="M0 1l6-1"/><path id="Line_3" data-name="Line 3" class="cls-2" transform="translate(263.5 27.5)" d="M0 1l6-1"/><path id="Line_4" data-name="Line 4" class="cls-3" transform="translate(250.5 24.5)" d="M6 2L0 0"/><path id="Line_5" data-name="Line 5" class="cls-3" transform="translate(252.5 27.5)" d="M5 1L0 0"/></g></svg>